<?xml version="1.0" encoding="UTF-8" standalone="no"?>
<svg
   xmlns:dc="http://purl.org/dc/elements/1.1/"
   xmlns:cc="http://creativecommons.org/ns#"
   xmlns:rdf="http://www.w3.org/1999/02/22-rdf-syntax-ns#"
   xmlns:svg="http://www.w3.org/2000/svg"
   xmlns="http://www.w3.org/2000/svg"
   xmlns:sodipodi="http://sodipodi.sourceforge.net/DTD/sodipodi-0.dtd"
   xmlns:inkscape="http://www.inkscape.org/namespaces/inkscape"
   width="210mm"
   height="297mm"
   viewBox="0 0 210 297"
   version="1.1"
   id="svg8"
   inkscape:version="1.0 (4035a4fb49, 2020-05-01)"
   sodipodi:docname="doodles.svg">
  <defs
     id="defs2" />
  <sodipodi:namedview
     id="base"
     pagecolor="#ffffff"
     bordercolor="#666666"
     borderopacity="1.0"
     inkscape:pageopacity="0.0"
     inkscape:pageshadow="2"
     inkscape:zoom="1.4"
     inkscape:cx="292.75544"
     inkscape:cy="543.60782"
     inkscape:document-units="mm"
     inkscape:current-layer="layer1"
     inkscape:document-rotation="0"
     showgrid="false"
     inkscape:window-width="1920"
     inkscape:window-height="1057"
     inkscape:window-x="-8"
     inkscape:window-y="-8"
     inkscape:window-maximized="1" />
  <metadata
     id="metadata5">
    <rdf:RDF>
      <cc:Work
         rdf:about="">
        <dc:format>image/svg+xml</dc:format>
        <dc:type
           rdf:resource="http://purl.org/dc/dcmitype/StillImage" />
        <dc:title />
      </cc:Work>
    </rdf:RDF>
  </metadata>
  <g
     inkscape:label="Layer 1"
     inkscape:groupmode="layer"
     id="layer1">
    <path
       id="path833-2"
       style="fill:#de8787;stroke:#de8787;stroke-width:0.821558;stroke-linecap:round;stroke-linejoin:round;stroke-miterlimit:4;stroke-dasharray:none"
       d="m 172.71851,92.874614 c 0,2.18286 -1.76955,3.95241 -3.95241,3.95241 -2.18285,0 -3.95241,-1.76955 -3.95241,-3.95241 0,-2.18285 1.50355,-6.01988 3.95241,-12.42989 2.22068,6.25945 3.95241,10.24704 3.95241,12.42989"
       sodipodi:nodetypes="csscc" />
    <path
       id="path833-2-2-9"
       style="fill:#de8787;stroke:#de8787;stroke-width:0.821558;stroke-linecap:round;stroke-linejoin:round;stroke-miterlimit:4;stroke-dasharray:none"
       d="m 166.68628,89.564194 c -1.83832,1.17705 -2.37439,3.62148 -1.19734,5.4598 1.17705,1.83832 3.62148,2.3744 5.4598,1.19735 1.83832,-1.17704 4.25898,-4.51229 8.33678,-10.03106 -6.46893,1.50507 -10.76092,2.19687 -12.59924,3.37391"
       sodipodi:nodetypes="csscc" />
    <path
       sodipodi:nodetypes="csscc"
       d="m 170.68963,89.490514 c 1.83832,1.17705 2.37439,3.62148 1.19734,5.4598 -1.17704,1.83832 -3.62148,2.37439 -5.4598,1.19735 -1.83832,-1.17705 -4.25897,-4.51229 -8.33677,-10.03107 6.46892,1.50508 10.76091,2.19687 12.59923,3.37392"
       style="fill:#de8787;stroke:#de8787;stroke-width:0.821558;stroke-linecap:round;stroke-linejoin:round;stroke-miterlimit:4;stroke-dasharray:none"
       id="path833-2-2-9-4" />
    <path
       sodipodi:nodetypes="csscc"
       d="m 171.78566,104.55334 c -1.93386,-1.01242 -2.68083,-3.40087 -1.6684,-5.334746 1.01244,-1.93386 3.40088,-2.68083 5.33475,-1.66839 1.93386,1.01243 4.63585,4.124126 9.1789,9.266696 -6.57544,-0.93584 -10.91138,-1.25112 -12.84525,-2.26356"
       style="fill:#de8787;stroke:#de8787;stroke-width:0.821558;stroke-linecap:round;stroke-linejoin:round;stroke-miterlimit:4;stroke-dasharray:none"
       id="path833-2-2" />
    <path
       sodipodi:nodetypes="csscc"
       d="m 177.51629,100.7446 c -0.19015,-2.174556 -2.10712,-3.783236 -4.28168,-3.593076 -2.17456,0.19015 -3.78324,2.10712 -3.59309,4.281676 0.19015,2.17455 2.02224,5.86602 5.02017,12.03835 1.66697,-6.42911 3.04475,-10.55239 2.8546,-12.72695"
       style="fill:#de8787;stroke:#de8787;stroke-width:0.821558;stroke-linecap:round;stroke-linejoin:round;stroke-miterlimit:4;stroke-dasharray:none"
       id="path833-2-2-9-7" />
    <path
       id="path833-2-2-9-4-6"
       style="fill:#de8787;stroke:#de8787;stroke-width:0.821558;stroke-linecap:round;stroke-linejoin:round;stroke-miterlimit:4;stroke-dasharray:none"
       d="m 175.72477,104.32548 c -1.89541,1.0827 -4.30966,0.42386 -5.39236,-1.47155 -1.08271,-1.89542 -0.42387,-4.309666 1.47155,-5.392366 1.89541,-1.0827 5.97295,-1.68032 12.75355,-2.73332 -4.33376,5.03298 -6.93732,8.514526 -8.83274,9.597236"
       sodipodi:nodetypes="csscc" />
    <path
       id="path833-2-2-0"
       style="fill:#de8787;stroke:#de8787;stroke-width:0.821558;stroke-linecap:round;stroke-linejoin:round;stroke-miterlimit:4;stroke-dasharray:none"
       d="m 165.78573,104.44495 c 1.93387,-1.01242 2.68084,-3.40087 1.6684,-5.334746 -1.01243,-1.93386 -3.40088,-2.68083 -5.33475,-1.6684 -1.93386,1.01244 -4.63585,4.124136 -9.17889,9.266696 6.57544,-0.93583 10.91137,-1.25111 12.84524,-2.26355"
       sodipodi:nodetypes="csscc" />
    <path
       id="path833-2-2-9-7-9"
       style="fill:#de8787;stroke:#de8787;stroke-width:0.821558;stroke-linecap:round;stroke-linejoin:round;stroke-miterlimit:4;stroke-dasharray:none"
       d="m 160.0551,100.63621 c 0.19015,-2.174556 2.10713,-3.783236 4.28168,-3.593086 2.17456,0.19015 3.78324,2.10713 3.59309,4.281676 -0.19015,2.17456 -2.02223,5.86604 -5.02016,12.03836 -1.66697,-6.42911 -3.04476,-10.55239 -2.85461,-12.72695"
       sodipodi:nodetypes="csscc" />
    <path
       sodipodi:nodetypes="csscc"
       d="m 161.84662,104.21709 c 1.89542,1.0827 4.30967,0.42386 5.39237,-1.47156 1.0827,-1.89541 0.42387,-4.309656 -1.47155,-5.392356 -1.89542,-1.0827 -5.97295,-1.68032 -12.75355,-2.73332 4.33376,5.03297 6.93731,8.514526 8.83273,9.597236"
       style="fill:#de8787;stroke:#de8787;stroke-width:0.821558;stroke-linecap:round;stroke-linejoin:round;stroke-miterlimit:4;stroke-dasharray:none"
       id="path833-2-2-9-4-6-7" />
    <path
       inkscape:transform-center-y="-0.64031173"
       d="m 58.266447,111.91507 -11.565195,-2.48401 0.437998,11.82084 -7.262762,-9.33683 -7.262762,9.33683 0.437998,-11.82084 -11.565195,2.48401 7.933814,-8.77375 -10.456145,-5.531098 11.71731,-1.621323 -4.454548,-10.95815 10.018147,6.289736 3.631381,-11.257758 3.631381,11.257758 10.018147,-6.289736 -4.454549,10.95815 11.717311,1.621323 -10.456145,5.531098 z"
       inkscape:randomized="0"
       inkscape:rounded="0"
       inkscape:flatsided="false"
       sodipodi:arg2="0.87266463"
       sodipodi:arg1="0.52359878"
       sodipodi:r2="10.617448"
       sodipodi:r1="21.234896"
       sodipodi:cy="101.29762"
       sodipodi:cx="39.876488"
       sodipodi:sides="9"
       id="path847"
       style="fill:#5fd38d;stroke:#5fd38d;stroke-width:2;stroke-linecap:round;stroke-linejoin:round"
       sodipodi:type="star" />
    <path
       d="m 109.48719,117.92819 0.37299,0.41248 v 0 l -1.91978,-0.41234"
       inkscape:transform-center-y="-0.64031173"
       style="fill:#6f918a;stroke:#536c67;stroke-width:2;stroke-linecap:round;stroke-linejoin:round"
       id="path847-3" />
    <path
       d="m 104.70201,112.63642 4.78518,5.29177"
       inkscape:transform-center-y="-0.64031173"
       style="fill:#6f918a;stroke:#536c67;stroke-width:2;stroke-linecap:round;stroke-linejoin:round"
       id="path1121" />
    <path
       d="m 106.12664,107.34505 -4.20028,2.22187 2.77565,3.0695"
       inkscape:transform-center-y="-0.64031173"
       style="fill:#6f918a;stroke:#536c67;stroke-width:2;stroke-linecap:round;stroke-linejoin:round"
       id="path1119" />
    <path
       d="m 100.81203,102.0533 -0.14683,0.3612 11.71731,1.62132 -6.25587,3.30923"
       inkscape:transform-center-y="-0.64031173"
       style="fill:#6f918a;stroke:#536c67;stroke-width:2;stroke-linecap:round;stroke-linejoin:round"
       id="path1117" />
    <path
       d="m 102.96314,96.761585 -2.15111,5.291715"
       inkscape:transform-center-y="-0.64031173"
       style="fill:#6f918a;stroke:#536c67;stroke-width:2;stroke-linecap:round;stroke-linejoin:round"
       id="path1115" />
    <path
       d="m 105.11425,91.469858 -2.15111,5.291727"
       inkscape:transform-center-y="-0.64031173"
       style="fill:#6f918a;stroke:#536c67;stroke-width:2;stroke-linecap:round;stroke-linejoin:round"
       id="path1113" />
    <path
       d="m 105.0985,91.469686 0.0212,-0.01334 -0.005,0.01351"
       inkscape:transform-center-y="-0.64031173"
       style="fill:#6f918a;stroke:#536c67;stroke-width:2;stroke-linecap:round;stroke-linejoin:round"
       id="path1111" />
    <path
       d="M 96.669477,96.761728 105.0985,91.469686"
       inkscape:transform-center-y="-0.64031173"
       style="fill:#6f918a;stroke:#536c67;stroke-width:2;stroke-linecap:round;stroke-linejoin:round"
       id="path1109" />
    <path
       d="m 94.784078,96.761718 0.317523,0.984369 1.567876,-0.984359"
       inkscape:transform-center-y="-0.64031173"
       style="fill:#6f918a;stroke:#536c67;stroke-width:2;stroke-linecap:round;stroke-linejoin:round"
       id="path1107" />
    <path
       d="m 93.077105,91.469879 1.706973,5.291839"
       inkscape:transform-center-y="-0.64031173"
       style="fill:#6f918a;stroke:#536c67;stroke-width:2;stroke-linecap:round;stroke-linejoin:round"
       id="path1105" />
    <path
       d="m 89.863338,91.469882 1.606884,-4.981554 1.606883,4.981551"
       inkscape:transform-center-y="-0.64031173"
       style="fill:#6f918a;stroke:#536c67;stroke-width:2;stroke-linecap:round;stroke-linejoin:round"
       id="path1103" />
    <path
       d="m 88.156366,96.76172 1.706972,-5.291838"
       inkscape:transform-center-y="-0.64031173"
       style="fill:#6f918a;stroke:#536c67;stroke-width:2;stroke-linecap:round;stroke-linejoin:round"
       id="path1101" />
    <path
       d="m 86.270913,96.761686 1.567929,0.984401 0.317524,-0.984367"
       inkscape:transform-center-y="-0.64031173"
       style="fill:#6f918a;stroke:#536c67;stroke-width:2;stroke-linecap:round;stroke-linejoin:round"
       id="path1099" />
    <path
       d="m 77.841939,91.469683 8.428974,5.292003"
       inkscape:transform-center-y="-0.64031173"
       style="fill:#6f918a;stroke:#536c67;stroke-width:2;stroke-linecap:round;stroke-linejoin:round"
       id="path1097" />
    <path
       d="m 77.826186,91.469861 -0.0055,-0.01351 0.02125,0.01333"
       inkscape:transform-center-y="-0.64031173"
       style="fill:#6f918a;stroke:#536c67;stroke-width:2;stroke-linecap:round;stroke-linejoin:round"
       id="path1095" />
    <path
       d="M 79.977259,96.761485 77.826186,91.469861"
       inkscape:transform-center-y="-0.64031173"
       style="fill:#6f918a;stroke:#536c67;stroke-width:2;stroke-linecap:round;stroke-linejoin:round"
       id="path1093" />
    <path
       d="M 82.128411,102.0533 79.977259,96.761485"
       inkscape:transform-center-y="-0.64031173"
       style="fill:#6f918a;stroke:#536c67;stroke-width:2;stroke-linecap:round;stroke-linejoin:round"
       id="path1091" />
    <path
       d="m 76.8138,107.34506 -6.255869,-3.30924 11.717311,-1.62132 -0.146831,-0.3612"
       inkscape:transform-center-y="-0.64031173"
       style="fill:#6f918a;stroke:#536c67;stroke-width:2;stroke-linecap:round;stroke-linejoin:round"
       id="path1089" />
    <path
       d="m 78.238425,112.63642 2.775651,-3.0695 -4.200276,-2.22186"
       inkscape:transform-center-y="-0.64031173"
       style="fill:#6f918a;stroke:#536c67;stroke-width:2;stroke-linecap:round;stroke-linejoin:round"
       id="path1087" />
    <path
       d="m 73.453253,117.92818 4.785172,-5.29176"
       inkscape:transform-center-y="-0.64031173"
       style="fill:#6f918a;stroke:#536c67;stroke-width:2;stroke-linecap:round;stroke-linejoin:round"
       id="path1085" />
    <path
       d="m 75.00005,117.92833 -1.919788,0.41234 0.372991,-0.41249"
       inkscape:transform-center-y="-0.64031173"
       style="fill:#6f918a;stroke:#536c67;stroke-width:2;stroke-linecap:round;stroke-linejoin:round"
       id="path1083" />
    <path
       d="m 84.568695,117.92833 0.07676,-2.07167 -9.645406,2.07167"
       inkscape:transform-center-y="-0.64031173"
       style="fill:#6f918a;stroke:#536c67;stroke-width:2;stroke-linecap:round;stroke-linejoin:round"
       id="path1081" />
    <path
       d="m 84.372623,123.21995 0.196072,-5.29162"
       inkscape:transform-center-y="-0.64031173"
       style="fill:#6f918a;stroke:#536c67;stroke-width:2;stroke-linecap:round;stroke-linejoin:round"
       id="path1079" />
    <path
       d="m 87.674906,123.21983 -3.467446,4.45767 0.165163,-4.45755"
       inkscape:transform-center-y="-0.64031173"
       style="fill:#6f918a;stroke:#536c67;stroke-width:2;stroke-linecap:round;stroke-linejoin:round"
       id="path1077" />
    <path
       d="m 95.265535,123.21983 -3.795313,-4.87916 -3.795316,4.87916"
       inkscape:transform-center-y="-0.64031173"
       style="fill:#6f918a;stroke:#536c67;stroke-width:2;stroke-linecap:round;stroke-linejoin:round"
       id="path1075" />
    <path
       d="m 98.567815,123.21995 0.165166,4.45755 -3.467446,-4.45767"
       inkscape:transform-center-y="-0.64031173"
       style="fill:#6f918a;stroke:#536c67;stroke-width:2;stroke-linecap:round;stroke-linejoin:round"
       id="path1073" />
    <path
       d="m 98.371743,117.92833 0.196072,5.29162"
       inkscape:transform-center-y="-0.64031173"
       style="fill:#6f918a;stroke:#536c67;stroke-width:2;stroke-linecap:round;stroke-linejoin:round"
       id="path1071" />
    <path
       d="m 107.9404,117.92833 -9.645418,-2.07167 0.07676,2.07167"
       inkscape:transform-center-y="-0.64031173"
       style="fill:#6f918a;stroke:#536c67;stroke-width:2;stroke-linecap:round;stroke-linejoin:round"
       id="path1069" />
    <path
       inkscape:transform-center-x="3.5231432e-06"
       sodipodi:type="star"
       style="fill:none;stroke:#916f6f;stroke-width:3;stroke-linecap:round;stroke-linejoin:round;stroke-miterlimit:4;stroke-dasharray:none"
       id="path847-2"
       sodipodi:sides="9"
       sodipodi:cx="129.82944"
       sodipodi:cy="158.00561"
       sodipodi:r1="20.340841"
       sodipodi:r2="14.025035"
       sodipodi:arg1="0.52985336"
       sodipodi:arg2="0.87891921"
       inkscape:flatsided="false"
       inkscape:rounded="0"
       inkscape:randomized="0"
       d="m 147.38117,168.28602 -8.60399,0.51957 -2.11045,8.3573 -6.92501,-5.13251 -6.98867,5.04549 -2.00575,-8.38305 -8.59681,-0.62716 3.85202,-7.71106 -6.18241,-6.00636 7.9074,-3.43097 -0.87519,-8.57512 8.26281,2.4545 4.84154,-7.13148 4.75196,7.19148 8.29286,-2.35094 -0.98238,8.56349 7.86386,3.52962 -6.25706,5.92856 z"
       inkscape:transform-center-y="-0.84581305" />
    <path
       inkscape:transform-center-y="-0.53400693"
       d="m 140.8255,164.45634 9.05746,-9.85752 -15.82203,15.46195 13.27471,-1.72928 -22.05912,1.67433 11.28057,7.20812 -17.97451,-12.89672 4.00814,12.77275 -5.47943,-21.43325 -5.13975,12.36087 9.57954,-19.94092 -11.88269,6.1652 20.15613,-9.11802 -13.06559,-2.91523 21.30145,5.97131 -8.13495,-10.6316 12.47958,18.26659 0.60212,-13.37331 z"
       inkscape:randomized="0"
       inkscape:rounded="0"
       inkscape:flatsided="false"
       sodipodi:arg2="-0.16565698"
       sodipodi:arg1="0.52985336"
       sodipodi:r2="20.418275"
       sodipodi:r1="12.842206"
       sodipodi:cy="157.96581"
       sodipodi:cx="129.7442"
       sodipodi:sides="9"
       id="path847-2-4"
       style="fill:none;stroke:#ac9393;stroke-width:3;stroke-linecap:round;stroke-linejoin:round;stroke-miterlimit:4;stroke-dasharray:none"
       sodipodi:type="star" />
  </g>
</svg>
